<svg height="512pt" viewBox="0 -91 512.00109 512" width="512pt" xmlns="http://www.w3.org/2000/svg"><path d="m53.089844 205.335938c2.851562-2.851563 8.648437-8.339844 14.429687-15.296876-1.527343-.234374-3.066406-.457031-4.578125-.703124-9.246094-1.515626-16.679687-7.652344-20.210937-15.710938-9.054688 4.480469-23.25 13.144531-33.976563 27.308594-3.308594 4.375 1.054688 10.445312 6.265625 8.722656 10.335938-3.410156 24.582031-6.558594 38.070313-4.320312zm0 0" fill="#6c9b1b"/><path d="m28.757812 200.933594c6.015626-7.949219 13.128907-14.164063 19.8125-18.882813-2.460937-2.40625-4.453124-5.265625-5.835937-8.425781-9.058594 4.480469-23.253906 13.144531-33.976563 27.308594-3.3125 4.375 1.054688 10.445312 6.261719 8.722656 3.855469-1.273438 8.253907-2.507812 12.953125-3.441406-.621094-1.648438-.496094-3.589844.785156-5.28125zm0 0" fill="#618913"/><path d="m296.679688 255.679688c5.285156 11.292968 11.636718 30.839843 13.550781 52.75.652343 7.425781 6.839843 13.140624 14.296875 13.140624h32.210937c8.132813 0 14.664063-6.75 14.34375-14.882812-.683593-17.234375-3.886719-48.679688-16.621093-75.328125-13.824219 12.308594-32.476563 21.792969-57.78125 24.320313zm0 0" fill="#6c9b1b"/><path d="m331.730469 308.429688c-1.164063-13.332032-3.972657-25.785157-7.183594-36.039063-2.679687-8.566406 2.441406-17.539063 11.132813-19.785156 8.863281-2.285157 16.726562-5.523438 23.722656-9.449219-1.464844-3.992188-3.097656-7.945312-4.9375-11.796875-13.828125 12.308594-32.476563 21.792969-57.785156 24.320313 5.285156 11.296874 11.640624 30.84375 13.554687 52.757812.644531 7.425781 6.839844 13.132812 14.292969 13.132812h21.5c-7.457032 0-13.648438-5.714843-14.296875-13.140624zm0 0" fill="#618913"/><path d="m504.507812 96.542969c-3.640624-17.4375-26.238281-96.765625-98.726562-88.636719-59.925781 6.71875-75.71875 57.464844-75.71875 57.464844-8.074219 18.933594-17.375 49.847656-17.1875 91.542968.023438 5.539063-3.488281 10.5-8.753906 12.21875-73.042969 23.871094-159.722656 32.902344-237.964844 20.945313-3.421875 4.117187-7.691406 8.707031-12.996094 13.832031-30.863281 29.816406-37.386718 77.226563-38.605468 101.773438-.425782 8.640625 6.433593 15.886718 15.085937 15.886718h26.25c8.859375 0 16.175781-6.839843 16.863281-15.671874 1.453125-18.640626 5.300782-32 8.597656-40.441407 2.449219-6.277343 9.277344-9.617187 15.785157-7.875 38.375 10.28125 75.589843 1.625 90.035156-2.652343 2.730469-.8125 5.328125 1.628906 4.695313 4.402343-4.046876 17.722657-4.949219 34.546875-4.925782 46.226563.015625 8.855468 7.203125 16.011718 16.054688 16.011718h31.949218c9.609376 0 17.617188-7.375 18.40625-16.957031.898438-10.875 2.578126-19.761719 4.398438-26.734375 2.996094-11.5 13.371094-19.523437 25.253906-19.523437 89.890625 0 106.023438-81.179688 111.871094-100.914063 5.84375-19.730468 20.460938-21.921875 51.886719-21.921875s38.003906-35.082031 38.003906-35.082031h16.5625c2.054687 0 3.597656-1.882812 3.179687-3.894531zm0 0" fill="#76ab29"/><path d="m34.582031 305.683594c1.214844-24.542969 7.742188-71.957032 38.601563-101.773438 4.316406-4.167968 7.9375-7.980468 10.984375-11.476562-6.09375-.671875-12.105469-1.453125-18.011719-2.355469-3.421875 4.117187-7.691406 8.707031-12.996094 13.832031-30.859375 29.816406-37.386718 77.230469-38.601562 101.773438-.429688 8.644531 6.429687 15.886718 15.082031 15.886718h20.023437c-8.652343 0-15.511718-7.242187-15.082031-15.886718zm0 0" fill="#6c9b1b"/><path d="m206.96875 305.558594c-.023438-11.679688.878906-28.503906 4.925781-46.226563.632813-2.773437-1.964843-5.210937-4.695312-4.402343-3.707031 1.09375-8.914063 2.480468-15.246094 3.757812-.011719.210938-.035156.425781-.082031.644531-4.050782 17.722657-4.949219 34.546875-4.929688 46.226563.019532 8.851562 7.207032 16.011718 16.058594 16.011718h20.023438c-8.851563 0-16.039063-7.15625-16.054688-16.011718zm0 0" fill="#6c9b1b"/><path d="m405.78125 7.90625c-59.925781 6.722656-75.71875 57.464844-75.71875 57.464844-8.074219 18.933594-17.375 49.851562-17.1875 91.542968.023438 5.542969-3.488281 10.5-8.753906 12.222657 0 0 11.203125-2.746094 22.578125-9.015625 3.820312-2.105469 6.171875-6.125 6.269531-10.488282.84375-38.023437 9.519531-66.449218 17.121094-84.261718 0 0 15.777344-50.707032 75.652344-57.457032-6.191407-.75-12.832032-.808593-19.960938-.007812zm0 0" fill="#6c9b1b"/><path d="m330.0625 65.371094c-35.582031-39.046875-89.039062-60.652344-145.398438-53.292969-78.539062 10.261719-137.183593 73.445313-144.777343 148.988281-1.375 13.6875 8.21875 26.101563 21.792969 28.324219 77.644531 12.714844 166.277343 4.636719 242.441406-20.253906 5.25-1.71875 8.78125-6.648438 8.753906-12.171875-.195312-41.71875 9.109375-72.652344 17.1875-91.59375zm0 0" fill="#a0634a"/><path d="m59.976562 167.582031c6.9375-69.058593 52.242188-128.820312 116.65625-154.25-74.476562 13.375-129.414062 74.789063-136.746093 147.738281-1.375 13.683594 8.21875 26.097657 21.792969 28.320313 2.007812.328125 4.039062.628906 6.070312.933594-5.574219-5.914063-8.644531-14.101563-7.773438-22.742188zm0 0" fill="#915039"/><path d="m452.554688 61.035156c0 6.054688-4.910157 10.960938-10.960938 10.960938-6.054688 0-10.964844-4.90625-10.964844-10.960938 0-6.054687 4.910156-10.964844 10.964844-10.964844 6.050781 0 10.960938 4.910157 10.960938 10.964844zm0 0" fill="#525468"/><path d="m125.738281 31.328125 20.890625 36.183594c1.351563 2.339843 3.847656 3.78125 6.550782 3.78125h50.554687c2.703125 0 5.199219-1.4375 6.550781-3.78125l25.277344-43.78125c1.351562-2.339844 1.351562-5.222657 0-7.5625l-1.886719-3.273438c-36.609375-6.050781-74.84375.226563-107.9375 18.433594zm0 0" fill="#ba7861"/><path d="m130.589844 39.730469c13.832031-10.824219 29.28125-19.78125 46.042968-26.398438-17.800781 3.195313-34.976562 9.25-50.894531 18zm0 0" fill="#a0634a"/><g fill="#ba7861"><path d="m209.757812 99.039062c-1.351562-2.339843-3.847656-3.78125-6.550781-3.78125h-50.554687c-2.703125 0-5.199219 1.441407-6.554688 3.78125l-25.273437 43.78125c-1.351563 2.339844-1.351563 5.226563 0 7.566407 27.203125 47.121093 25.300781 43.972656 26.050781 44.859375 22.402344-.398438 44.023438-2.175782 65.203125-5.101563l22.957031-39.761719c1.351563-2.339843 1.351563-5.222656 0-7.5625zm0 0"/><path d="m313.71875 134.40625c2.449219-30.460938 9.796875-53.6875 16.34375-69.035156-12.152344-13.335938-26.390625-24.632813-42.117188-33.441406h-26.535156c-2.699218 0-5.199218 1.441406-6.550781 3.78125l-25.277344 43.785156c-1.351562 2.339844-1.351562 5.222656 0 7.5625l25.277344 43.78125c1.351563 2.339844 3.847656 3.785156 6.550781 3.785156 54.703125-.003906 51.007813.089844 52.308594-.21875zm0 0"/><path d="m260.882812 158.585938c-2.703124 0-5.199218 1.4375-6.550781 3.78125l-13.277343 22.996093c22.027343-4.246093 43.132812-9.714843 63.066406-16.226562 4.6875-1.535157 7.996094-5.628907 8.632812-10.421875-1.046875-.183594 3.03125-.128906-51.871094-.128906zm0 0"/><path d="m44.742188 134.621094h49.429687c2.703125 0 5.199219-1.441406 6.550781-3.78125l25.28125-43.78125c1.347656-2.339844 1.347656-5.226563 0-7.566406l-20.316406-35.179688c-29.617188 22.347656-51.242188 54.160156-60.945312 90.308594zm0 0"/></g><path d="m105.6875 44.3125c-30.765625 23.3125-51.558594 55.335938-60.945312 90.308594h21.632812c8.636719-29.792969 24.589844-56.796875 46.042969-78.65625zm0 0" fill="#a0634a"/><path d="m100.195312 162.367188c-1.351562-2.339844-3.847656-3.78125-6.550781-3.78125-54.957031 0-51.511719-.257813-53.550781.621093-1.855469 16.585938 8.625 28.0625 21.585938 30.183594 18.21875 2.984375 37.425781 4.867187 57.351562 5.601563zm0 0" fill="#ba7861"/><path d="m67.75 190.324219c-5.574219-5.914063-8.644531-14.097657-7.777344-22.742188.304688-3.019531.707032-6.015625 1.15625-8.996093-19.742187 0-19.109375-.207032-21.035156.625-.183594 1.648437-.421875 3.265624-.308594 5.667968.5625 12.113282 9.59375 22.496094 21.894532 24.511719 2.003906.328125 4.074218.636719 6.070312.933594zm0 0" fill="#a0634a"/><path d="m441.511719 79.664062c10.179687 0 18.464843-8.28125 18.464843-18.460937s-8.285156-18.460937-18.464843-18.460937c-10.179688 0-18.460938 8.28125-18.460938 18.460937s8.28125 18.460937 18.460938 18.460937zm0-21.921874c1.910156 0 3.464843 1.550781 3.464843 3.460937s-1.554687 3.460937-3.464843 3.460937c-1.90625 0-3.460938-1.550781-3.460938-3.460937s1.554688-3.460937 3.460938-3.460937zm0 0"/><path d="m2.671875 196.367188c-7.660156 10.117187 2.394531 24.148437 14.453125 20.175781 5.1875-1.714844 11.851562-3.46875 18.894531-4.210938-22.464843 30.640625-27.902343 70.328125-29.035156 93.148438-.625 12.652343 9.367187 23.761719 22.574219 23.761719h26.253906c12.664062 0 23.355469-9.929688 24.34375-22.601563 1.410156-18.105469 5.183594-30.8125 8.101562-38.285156 1.046876-2.679688 3.996094-4.125 6.859376-3.359375 35.75 9.578125 70.101562 3.636718 88.066406-1.011719-3.113282 16.144531-3.839844 31.105469-3.820313 41.703125.019531 12.988281 10.585938 23.554688 23.554688 23.554688h31.945312c13.632813 0 24.761719-10.277344 25.890625-23.90625.757813-9.128907 2.160156-17.671876 4.171875-25.398438 2.136719-8.191406 9.535157-13.910156 18-13.910156 3.074219 0 6.0625-.097656 8.976563-.273438 4.402344 10.4375 9.195312 25.390625 10.777344 43.496094.996093 11.398438 10.355468 19.992188 21.769531 19.992188h32.210937c12.410156 0 22.328125-10.28125 21.835938-22.679688-.15625-3.964844-.425782-8.039062-.796875-12.113281-.378907-4.125-4.046875-7.171875-8.15625-6.78125-4.125.378906-7.160157 4.027343-6.78125 8.152343.347656 3.816407.601562 7.628907.746093 11.335938.15625 3.863281-2.949218 7.082031-6.847656 7.082031h-32.210937c-3.578125 0-6.511719-2.707031-6.824219-6.292969-1.550781-17.757812-5.90625-32.785156-10.273438-44.011718 17.796876-3.1875 32.207032-9.804688 43.886719-18.273438.058594-.042968.121094-.085937.179688-.128906 2.050781 5.230469 3.863281 10.765625 5.425781 16.554688 1.074219 4 5.1875 6.371093 9.191406 5.292968 3.996094-1.078125 6.367188-5.191406 5.289063-9.191406-2.179688-8.105469-4.839844-15.773438-7.917969-22.898438 27.1875-26.996093 35.054688-63.640624 38.582031-75.546874 4.03125-13.613282 11.96875-16.554688 44.695313-16.554688 25.90625 0 39.058594-20.394531 43.796875-35.082031h10.769531c6.8125 0 11.914062-6.257813 10.519531-12.925781-1.097656-5.269532-7.460937-32.753907-24.804687-56.765626-20.546875-28.445312-48.941406-41.511718-82.097656-37.792968-46.839844 5.253906-68.664063 35.128906-77.292969 51.695312-25.046875-24.148437-57.28125-40.75-92.617188-46.621094-.105469-.023437-.214843-.035156-.320312-.050781-10.65625-1.75-21.527344-2.523437-32.488281-2.253906-4.140626.105469-7.414063 3.542969-7.3125 7.683594.101562 4.078125 3.4375 7.316406 7.492187 7.316406.0625 0 .125 0 .1875-.003906 8.878906-.214844 17.691406.324219 26.359375 1.558593l.117188.203126-25.335938 43.8125-50.609375-.027344-16.972656-29.402344c10.382812-5.066406 21.425781-9.058594 32.996093-11.8125 4.027344-.957031 6.515626-5.003906 5.558594-9.03125-.957031-4.03125-4.996094-6.523438-9.03125-5.558594-72.273437 17.199219-125.824218 78.425782-133.253906 152.359375-.34375 3.425781-.144531 6.789063.511719 10.007813-9.476563 5.378906-20.972657 13.703125-30.183594 25.871094zm334.472656-128.597657c.144531-.460937 14.964844-46.136719 69.394531-52.242187 62.289063-6.980469 84.042969 57.3125 89.328126 77.578125h-51.429688c-4.144531 0-7.5 3.359375-7.5 7.5 0 4.144531 3.355469 7.5 7.5 7.5h29.949219c-3.753907 8.53125-11.773438 20.082031-27.703125 20.082031-44.402344 0-53.75 7.796875-60.394532 31.964844-15.578124 56.699218-45.023437 90.871094-103.363281 90.871094-15.292969 0-28.660156 10.335937-32.515625 25.132812-2.230468 8.558594-3.777344 17.957031-4.605468 27.9375-.480469 5.785156-5.183594 10.148438-10.941407 10.148438h-31.945312c-4.710938 0-8.546875-3.847657-8.554688-8.578126-.019531-12.328124 1.035157-30.964843 6.113281-50.03125 8.242188-17.203124 13.566407-24 13.707032-24.179687 2.597656-3.207031 2.117187-7.914063-1.082032-10.527344-3.207031-2.621093-7.933593-2.144531-10.554687 1.066407-.246094.300781-5.898437 7.308593-14.539063 24.972656-10.457031 3.371094-49.285156 14.183594-89.011718 3.546875-10.257813-2.753907-20.875 2.574219-24.710938 12.386719-3.285156 8.417968-7.53125 22.640624-9.085937 42.582031-.382813 4.914062-4.503907 8.761719-9.386719 8.761719h-26.253906c-4.359375 0-7.808594-3.640626-7.589844-8.015626 3.414062-68.933593 35.304688-95.722656 35.304688-95.722656 2.1875-2.179687 6.992187-6.777344 11.789062-12.21875 112.34375 16.042969 227.992188-15.792968 241.234375-23.625 6.28125-3.667968 10.03125-10.40625 10-17.558594-.246094-52.917968 15.332031-84.445312 16.847656-89.332031zm-108.683593 79.035157-21.117188 36.578124c-17.285156 2.28125-36.792969 3.914063-56.445312 4.414063-2.035157-3.5-14.324219-24.804687-23.660157-41.058594l25.332031-43.8125h50.558594c.019532 0 .042969.011719.054688.03125zm27.417968 27.949218 4.925782-8.5h27.78125c-11.089844 3.28125-22.070313 6.105469-32.707032 8.5zm30-135.15625c12.824219 7.386719 24.777344 16.640625 35.332032 27.554688-7.601563 19.1875-12.199219 39.613281-14.421876 60.136718l-45.511718-.027343-25.277344-43.847657 25.332031-43.816406zm-182.414062 16.183594 15.960937 27.695312-25.332031 43.8125h-39.332031c9.339843-27.714843 26.289062-52.617187 48.703125-71.507812zm-52.957032 86.511719h43.585938c5.363281 0 10.363281-2.886719 13.046875-7.53125l25.277344-43.785157c2.679687-4.644531 2.679687-10.417968 0-15.0625l-16.941407-29.34375c2.429688-1.675781 4.910157-3.285156 7.4375-4.828124l17.140626 29.691406c2.683593 4.644531 7.679687 7.53125 13.046874 7.53125h50.554688c5.367188 0 10.363281-2.886719 13.046875-7.53125l25.277344-43.785156c.878906-1.523438 1.464843-3.171876 1.769531-4.859376 3.816406.921876 7.597656 1.984376 11.332031 3.183594-2.804687 1.28125-5.207031 3.410156-6.792969 6.15625l-25.277343 43.785156c-2.683594 4.644532-2.683594 10.417969 0 15.0625l25.277343 43.78125c2.679688 4.644532 7.679688 7.53125 13.042969 7.53125h44.296875c-.144531 2.9375-.242187 5.984376-.292968 8.964844h-44.53125c-5.367188 0-10.363282 2.886719-13.046876 7.53125l-11.558593 20.019532c-3.289063.613281-6.589844 1.195312-9.902344 1.75l15.152344-26.253907c2.683593-4.644531 2.683593-10.414062 0-15.0625l-25.277344-43.78125c-2.679687-4.644531-7.679687-7.53125-13.042969-7.53125h-50.558594c-5.363281 0-10.359374 2.886719-13.042968 7.53125l-25.28125 43.785157c-2.679688 4.644531-2.679688 10.414062.003906 15.0625 11.136719 19.292968 16.480469 28.570312 19.410156 33.648437-7.242187-.058594-8.628906-.144531-10.320312-.191406l-16.730469-28.976563c-2.683594-4.648437-7.683594-7.53125-13.046875-7.53125h-44.835938c.511719-3.015625 1.105469-6.003906 1.78125-8.960937zm43.054688 23.960937c.023438 0 .046875.011719.058594.03125l11.921875 20.648438c-7.269531-.472656-40.953125-3.214844-47.539063-6.261719-5.894531-2.726563-9.820312-8.222656-10.644531-14.417969zm-54.464844 17.953125c3.488282 4.570313 8.117188 8.105469 13 10.277344-.933594.953125-1.761718 1.785156-2.792968 2.800781-10.847657-1.066406-21.722657.742188-30.476563 3.09375 6.492187-7.125 13.835937-12.410156 20.269531-16.171875zm0 0"/></svg>