<?xml version="1.0" encoding="iso-8859-1"?>
<!-- Generator: Adobe Illustrator 19.0.0, SVG Export Plug-In . SVG Version: 6.00 Build 0)  -->
<svg version="1.1" id="Capa_1" xmlns="http://www.w3.org/2000/svg" xmlns:xlink="http://www.w3.org/1999/xlink" x="0px" y="0px"
	 viewBox="0 0 512 512" style="enable-background:new 0 0 512 512;" xml:space="preserve">
<path style="fill:#E6E9ED;" d="M330.71,295.482V190.953c0-3.281,2.643-5.939,5.902-5.939h59.963
	C374.406,109.577,305.04,54.529,222.884,54.529c-100.027,0-181.115,81.596-181.115,182.25c0,16.219,2.117,31.939,6.067,46.906
	h223.916c3.661,0,6.628,2.986,6.628,6.672c0,8.353-0.808,16.558-2.346,24.533c2.522,0.977,4.315,3.431,4.315,6.313
	c0,8.615-0.852,17.074-2.462,25.293c2.045,1.173,3.427,3.383,3.427,5.922c0,21.938-5.399,42.893-15.162,61.366
	c42.755-10.548,79.552-36.36,104.345-71.382C347.98,338.805,330.71,319.138,330.71,295.482z"/>
<g style="opacity:0.1;">
	<path d="M75.063,283.685C71.113,268.719,69,252.998,69,236.779c0-96.045,73.833-174.733,167.5-181.739
		c-4.495-0.336-9.035-0.511-13.616-0.511c-100.027,0-181.115,81.596-181.115,182.25c0,16.219,2.117,31.939,6.067,46.906H75.063z"/>
</g>
<path style="fill:#FFFFFF;" d="M271.752,283.685c2.722,0,5.059,1.653,6.079,4.016c12.265-13.394,19.763-31.273,19.763-50.922
	c0-41.52-33.449-75.178-74.71-75.178s-74.71,33.658-74.71,75.178c0,17.747,6.126,34.046,16.347,46.906H271.752z"/>
<path style="fill:#D7F7FF;" d="M498.598,185.014h-79.353c3.26,0,5.902,2.658,5.902,5.939v104.529c0,9.47-2.778,18.293-7.542,25.711
	c8.415,13.104,23.051,21.803,39.677,21.803c26.036,0,47.218-21.314,47.218-47.514V190.953
	C504.5,187.672,501.857,185.014,498.598,185.014z"/>
<path style="fill:#B1E8FF;" d="M480.275,450.68c-1.033-14.003-10.928-24.986-22.993-24.986s-21.961,10.983-22.993,24.986H480.275z"
	/>
<path style="fill:#D7F7FF;" d="M492.801,450.68h-71.039c-1.729,0-3.259,0.892-4.157,2.236c0.53,0.793,0.842,1.743,0.842,2.764
	v14.168c0,1.021-0.312,1.971-0.842,2.764c0.898,1.345,2.428,2.236,4.157,2.236h71.039c2.75,0,5-2.25,5-5V455.68
	C497.801,452.93,495.551,450.68,492.801,450.68z"/>
<path style="fill:#B1E8FF;" d="M377.928,342.996c-26.036,0-47.218-21.314-47.218-47.514V190.953c0-3.281,2.643-5.939,5.902-5.939
	h82.632c3.26,0,5.902,2.658,5.902,5.939v104.529C425.147,321.682,403.965,342.996,377.928,342.996z"/>
<g style="opacity:0.1;">
	<path d="M352.563,295.482V190.953c0-3.281,2.643-5.939,5.902-5.939h-21.853c-3.26,0-5.902,2.658-5.902,5.939v104.529
		c0,26.199,21.182,47.514,47.218,47.514c3.762,0,7.417-0.458,10.927-1.298C368.072,336.723,352.563,317.897,352.563,295.482z"/>
</g>
<path style="fill:#D7F7FF;" d="M400.921,450.68c-1.032-14.003-10.927-24.986-22.993-24.986c-12.065,0-21.96,10.983-22.993,24.986
	H400.921z"/>
<path style="fill:#B1E8FF;" d="M418.448,469.848c0,2.75-2.25,5-5,5h-71.039c-2.75,0-5-2.25-5-5V455.68c0-2.75,2.25-5,5-5h71.039
	c2.75,0,5,2.25,5,5V469.848z"/>
<path style="fill:#FF9F3D;" d="M15.19,314.435h258.434c0.851,0,1.662,0.166,2.411,0.455c1.538-7.976,2.346-16.181,2.346-24.533
	c0-3.685-2.968-6.672-6.628-6.672H17.062c-3.661,0-6.628,2.986-6.628,6.672c0,8.353,0.808,16.558,2.346,24.533
	C13.529,314.602,14.339,314.435,15.19,314.435z"/>
<g style="opacity:0.1;">
	<path d="M15.19,314.435h25.062C38.771,306.603,38,298.551,38,290.357c0-3.685,2.968-6.672,6.628-6.672H17.062
		c-3.661,0-6.628,2.986-6.628,6.672c0,8.353,0.808,16.558,2.346,24.533C13.529,314.602,14.339,314.435,15.19,314.435z"/>
</g>
<path style="fill:#FCC96C;" d="M14.274,345.602H274.54c1.219,0,2.359,0.328,3.347,0.895c1.611-8.219,2.462-16.678,2.462-25.293
	c0-3.738-3.011-6.768-6.726-6.768H15.19c-3.715,0-6.726,3.029-6.726,6.768c0,8.615,0.852,17.074,2.462,25.293
	C11.915,345.93,13.056,345.602,14.274,345.602z"/>
<path style="opacity:0.1;enable-background:new    ;" d="M14.274,345.602h24.004C36.78,337.664,36,329.505,36,321.203
	c0-3.738,3.011-6.768,6.726-6.768H15.19c-3.715,0-6.726,3.029-6.726,6.768c0,8.615,0.852,17.074,2.462,25.293
	C11.915,345.93,13.056,345.602,14.274,345.602z"/>
<path style="fill:#FB8276;" d="M254.177,432.42c17.254-22.371,27.138-50.29,27.138-80.002c0-3.766-3.033-6.816-6.774-6.816H14.274
	c-3.741,0-6.774,3.051-6.774,6.816c0,29.712,9.883,57.631,27.138,80.002L254.177,432.42L254.177,432.42z"/>
<path style="fill:#EF5A50;" d="M87.77,473.06c0.819,0.34,1.694,0.514,2.581,0.514h108.113c0.886,0,1.763-0.174,2.581-0.514
	c21.459-8.9,39.572-23.058,53.132-40.641H34.637C48.198,450.002,66.311,464.16,87.77,473.06z"/>
<g style="opacity:0.1;">
	<path d="M35,352.418c0-3.766,3.033-6.816,6.774-6.816h-27.5c-3.741,0-6.774,3.051-6.774,6.816
		c0,53.064,31.507,100.42,80.27,120.642c0.819,0.34,1.694,0.514,2.581,0.514h27.5c-0.886,0-1.762-0.174-2.581-0.514
		C66.507,452.838,35,405.482,35,352.418z"/>
</g>
<g>
	<path style="fill:#FCC96C;" d="M37.762,128.525c-1.042,0-1.966-0.678-2.275-1.676c-3.732-12.004-6.298-14.57-18.287-18.309
		c-0.997-0.311-1.676-1.232-1.676-2.279c0-1.043,0.679-1.967,1.676-2.277c11.989-3.738,14.555-6.305,18.287-18.309
		C35.796,84.678,36.719,84,37.762,84c1.044,0,1.965,0.678,2.275,1.676c3.734,12.004,6.297,14.57,18.288,18.309
		c0.996,0.311,1.675,1.234,1.675,2.277c0,1.047-0.679,1.969-1.675,2.279c-11.991,3.738-14.554,6.305-18.288,18.309
		C39.727,127.848,38.806,128.525,37.762,128.525z"/>
	<path style="fill:#FCC96C;" d="M463.663,156.158c-1.042,0-1.965-0.678-2.275-1.676c-3.732-12.004-6.297-14.57-18.287-18.309
		c-0.997-0.311-1.676-1.234-1.676-2.279c0-1.045,0.679-1.967,1.676-2.277c11.989-3.738,14.554-6.305,18.287-18.309
		c0.31-0.998,1.233-1.678,2.275-1.678c1.044,0,1.966,0.68,2.275,1.678c3.735,12.004,6.298,14.57,18.288,18.309
		c0.996,0.311,1.675,1.232,1.675,2.277s-0.679,1.969-1.675,2.279c-11.99,3.738-14.553,6.305-18.288,18.309
		C465.628,155.48,464.707,156.158,463.663,156.158z"/>
</g>
<path style="fill:#FFAF68;" d="M386.679,90.883c-1.258,0-2.372-0.818-2.746-2.021c-4.504-14.486-7.6-17.584-22.068-22.094
	c-1.203-0.375-2.022-1.488-2.022-2.75s0.82-2.375,2.022-2.75c14.468-4.51,17.563-7.607,22.068-22.094
	c0.374-1.203,1.488-2.021,2.746-2.021c1.261,0,2.372,0.818,2.746,2.021c4.507,14.486,7.6,17.584,22.069,22.094
	c1.202,0.375,2.021,1.488,2.021,2.75s-0.82,2.375-2.021,2.75c-14.469,4.51-17.562,7.607-22.069,22.094
	C389.051,90.064,387.94,90.883,386.679,90.883z"/>
<path d="M512,295.482V190.953c0-7.41-6.012-13.439-13.402-13.439h-96.52C377.28,101.819,306.324,47.029,222.884,47.029
	c-104.003,0-188.615,85.121-188.615,189.75c0,13.511,1.433,26.688,4.115,39.406H17.062c-7.791,0-14.128,6.358-14.128,14.172
	c0,7.233,0.582,14.359,1.68,21.338c-2.26,2.527-3.649,5.853-3.649,9.508c0,7.7,0.637,15.284,1.865,22.694
	C1.06,346.281,0,349.224,0,352.418c0,56.108,33.324,106.183,84.895,127.569c1.737,0.722,3.573,1.087,5.456,1.087h108.113
	c1.884,0,3.72-0.366,5.454-1.086c29.199-12.109,52.541-33.419,67.304-59.809c39.7-10.598,74.302-33.908,99.206-65.337v64.413
	c-10.437,3.003-18.773,12.131-21.823,23.924h-6.196c-6.893,0-12.5,5.607-12.5,12.5v14.168c0,6.893,5.607,12.5,12.5,12.5h150.392
	c6.892,0,12.5-5.607,12.5-12.5V455.68c0-6.893-5.608-12.5-12.5-12.5h-6.196c-3.05-11.793-11.385-20.921-21.823-23.924v-69.289
	C491.416,346.277,512,323.258,512,295.482z M427.96,443.18h-20.708c-3.049-11.793-11.385-20.921-21.823-23.924v-69.289
	c12.6-1.745,23.838-7.816,32.191-16.674c8.348,8.852,19.572,14.924,32.163,16.67v69.293
	C439.345,422.259,431.009,431.387,427.96,443.18z M497,295.482c0,22.064-17.817,40.014-39.718,40.014
	c-12.4,0-23.474-5.769-30.762-14.769c3.905-7.566,6.126-16.147,6.126-25.245V270c0-4.143-3.358-7.5-7.5-7.5s-7.5,3.357-7.5,7.5
	v25.482c0,22.064-17.818,40.014-39.719,40.014c-21.9,0-39.718-17.95-39.718-40.014V192.514h79.437v37.485c0,4.143,3.358,7.5,7.5,7.5
	s7.5-3.357,7.5-7.5v-37.485H497V295.482z M270.878,291.185c-0.036,5.324-0.43,10.58-1.142,15.75H19.078
	c-0.711-5.17-1.106-10.426-1.142-15.75H270.878z M188.999,353.102c4.142,0,7.5-3.357,7.5-7.5s-3.358-7.5-7.5-7.5H17.136
	c-0.733-5.306-1.137-10.7-1.169-16.166h256.881c-0.032,5.466-0.436,10.86-1.169,16.166h-42.68c-4.142,0-7.5,3.357-7.5,7.5
	s3.358,7.5,7.5,7.5h44.813c-0.144,26.479-8.61,51.419-23.395,71.818H38.397c-14.785-20.399-23.251-45.339-23.396-71.818H188.999z
	 M198.312,466.074H90.502c-14.97-6.23-28.195-15.19-39.24-26.154h186.291C226.508,450.883,213.282,459.844,198.312,466.074z
	 M279.762,401.875c5.881-15.474,9.053-32.177,9.053-49.457c0-3.193-1.061-6.136-2.83-8.52c1.228-7.411,1.865-14.995,1.865-22.695
	c0-3.654-1.389-6.981-3.649-9.508c1.098-6.979,1.68-14.105,1.68-21.338c0-0.166-0.019-0.327-0.025-0.492
	c12-14.373,19.239-32.893,19.239-53.086c0-21.284-8.024-41.503-22.593-56.931c-2.845-3.013-7.591-3.147-10.603-0.304
	c-3.012,2.844-3.147,7.591-0.304,10.603c11.929,12.632,18.499,29.193,18.499,46.632c0,15.116-4.968,29.072-13.321,40.348
	c-1.563-0.599-3.251-0.942-5.021-0.942H168.298c-7.935-11.105-12.624-24.711-12.624-39.406c0-37.317,30.15-67.678,67.21-67.678
	c5.831,0,11.614,0.751,17.191,2.232c4.001,1.066,8.111-1.318,9.174-5.322c1.064-4.003-1.319-8.11-5.323-9.174
	c-6.833-1.815-13.913-2.736-21.043-2.736c-45.331,0-82.21,37.089-82.21,82.678c0,14.264,3.623,27.686,9.976,39.406H53.75
	c-2.915-12.671-4.481-25.855-4.481-39.406c0-96.357,77.883-174.75,173.615-174.75c75.071,0,139.159,48.21,163.329,115.484h-49.6
	c-7.39,0-13.402,6.029-13.402,13.439v104.529c0,23.191,14.353,43.061,34.59,51.141C337.603,371.708,310.652,391.061,279.762,401.875
	z M377.928,433.193c5.744,0,10.802,4.006,13.506,9.986h-27.011C367.127,437.199,372.185,433.193,377.928,433.193z M344.909,458.18
	h66.039v9.168h-66.039V458.18z M490.301,467.348h-64.353v-9.168h64.353V467.348z M470.788,443.18h-27.011
	c2.704-5.98,7.762-9.986,13.505-9.986C463.025,433.193,468.083,437.199,470.788,443.18z"/>
<path d="M14.967,115.701c9.615,2.998,10.364,3.748,13.356,13.37c1.29,4.159,5.083,6.954,9.438,6.954
	c4.354,0,8.146-2.793,9.437-6.948c2.995-9.629,3.745-10.379,13.36-13.376c4.152-1.296,6.941-5.089,6.941-9.439
	c0-4.35-2.79-8.142-6.942-9.438c-9.614-2.997-10.364-3.747-13.358-13.373c-1.292-4.158-5.084-6.951-9.438-6.951
	c-4.355,0-8.148,2.795-9.437,6.949c-2.994,9.627-3.743,10.377-13.356,13.374c-4.154,1.294-6.946,5.087-6.946,9.439
	C8.023,110.614,10.814,114.408,14.967,115.701z M37.762,99.453c1.804,2.853,3.957,5.005,6.809,6.81
	c-2.852,1.805-5.004,3.957-6.808,6.81c-1.804-2.852-3.957-5.005-6.809-6.81C33.806,104.458,35.958,102.306,37.762,99.453z"/>
<path d="M440.868,143.334c9.615,2.998,10.364,3.748,13.357,13.374c1.292,4.157,5.084,6.95,9.438,6.95
	c4.355,0,8.148-2.795,9.437-6.947c2.996-9.63,3.745-10.38,13.359-13.377c4.153-1.295,6.943-5.088,6.943-9.439
	c0-4.35-2.79-8.143-6.943-9.438c-9.614-2.997-10.363-3.747-13.357-13.37c-1.29-4.161-5.083-6.956-9.439-6.956
	c-4.353,0-8.146,2.794-9.437,6.951c-2.994,9.627-3.743,10.377-13.355,13.374c-4.154,1.294-6.946,5.087-6.946,9.438
	C433.924,138.247,436.716,142.041,440.868,143.334z M463.664,127.086c1.804,2.853,3.956,5.005,6.809,6.81
	c-2.852,1.805-5.004,3.958-6.809,6.81c-1.803-2.852-3.957-5.005-6.809-6.81C459.707,132.091,461.859,129.939,463.664,127.086z"/>
<path d="M359.633,73.928c12.092,3.77,13.373,5.052,17.138,17.16c1.357,4.363,5.338,7.295,9.908,7.295
	c4.571,0,8.553-2.933,9.907-7.293c3.768-12.11,5.05-13.394,17.143-17.163c4.358-1.36,7.287-5.342,7.287-9.909
	s-2.929-8.549-7.29-9.91c-12.09-3.768-13.372-5.052-17.139-17.157c-1.355-4.365-5.337-7.298-9.908-7.298
	c-4.569,0-8.551,2.932-9.907,7.295c-3.765,12.108-5.046,13.391-17.139,17.16c-4.36,1.359-7.29,5.342-7.29,9.91
	C352.343,68.586,355.272,72.568,359.633,73.928z M386.68,52.643c2.759,5.211,6.163,8.615,11.372,11.375
	c-5.208,2.761-8.612,6.164-11.372,11.375c-2.759-5.21-6.163-8.614-11.373-11.375C380.518,61.257,383.921,57.854,386.68,52.643z"/>
<g>
</g>
<g>
</g>
<g>
</g>
<g>
</g>
<g>
</g>
<g>
</g>
<g>
</g>
<g>
</g>
<g>
</g>
<g>
</g>
<g>
</g>
<g>
</g>
<g>
</g>
<g>
</g>
<g>
</g>
</svg>
