<svg id="Capa_1" enable-background="new 0 0 512 512" height="512" viewBox="0 0 512 512" width="512" xmlns="http://www.w3.org/2000/svg"><g><g><g><g><path d="m216.754 226.164c5.367-12.876 8.335-27.002 8.335-41.822 0-60.086-48.709-108.794-108.794-108.794s-108.795 48.709-108.795 108.794 48.709 108.794 108.794 108.794c13.838 0 27.071-2.589 39.246-7.301 11.38-27.303 33.564-48.971 61.214-59.671z" fill="#fd4755"/><g><path d="m49.411 184.342c0-52.916 37.781-97.001 87.839-106.77-6.782-1.323-13.786-2.024-20.956-2.024-60.085 0-108.794 48.709-108.794 108.794s48.709 108.794 108.794 108.794c7.169 0 14.174-.701 20.956-2.024-50.057-9.768-87.839-53.854-87.839-106.77z" fill="#fb2b3a"/></g></g></g></g><g><path d="m295.246 226.164c-12.176-4.711-25.408-7.301-39.246-7.301-60.085 0-108.794 48.709-108.794 108.794 0 60.086 48.709 108.794 108.794 108.794s108.794-48.709 108.794-108.794c0-14.82-2.968-28.946-8.335-41.822-27.649-10.699-49.833-32.367-61.213-59.671z" fill="#fed402"/><g><path d="m189 327.658c0-52.937 37.811-97.035 87.897-106.781-6.764-1.316-13.749-2.013-20.897-2.013-60.085 0-108.794 48.709-108.794 108.794 0 60.086 48.709 108.794 108.794 108.794 7.149 0 14.134-.697 20.897-2.013-50.086-9.746-87.897-53.844-87.897-106.781z" fill="#fac600"/></g></g><g><g><circle cx="395.706" cy="184.342" fill="#97d729" r="108.794"/></g><g><path d="m328.411 184.342c0-52.989 37.885-97.121 88.044-106.809-6.718-1.297-13.653-1.985-20.75-1.985-60.085 0-108.794 48.709-108.794 108.794s48.709 108.794 108.794 108.794c7.097 0 14.032-.688 20.75-1.985-50.159-9.687-88.044-53.82-88.044-106.809z" fill="#8bc727"/></g></g><g><path d="m81.725 245.731c4.143 0 7.5-3.358 7.5-7.5 0-14.927 12.144-27.07 27.069-27.07 14.927 0 27.07 12.144 27.07 27.07 0 4.142 3.357 7.5 7.5 7.5s7.5-3.358 7.5-7.5c0-23.198-18.873-42.07-42.07-42.07s-42.069 18.873-42.069 42.07c0 4.142 3.357 7.5 7.5 7.5z"/><path d="m94.769 160.957c0-4.142-3.357-7.5-7.5-7.5h-23.905c-4.143 0-7.5 3.358-7.5 7.5s3.357 7.5 7.5 7.5h23.904c4.143 0 7.501-3.358 7.501-7.5z"/><path d="m176.725 160.957c0-4.142-3.357-7.5-7.5-7.5h-23.905c-4.143 0-7.5 3.358-7.5 7.5s3.357 7.5 7.5 7.5h23.904c4.143 0 7.501-3.358 7.501-7.5z"/><path d="m225.497 321.94c4.143 0 7.5-3.358 7.5-7.5v-21.352c0-4.142-3.357-7.5-7.5-7.5s-7.5 3.358-7.5 7.5v21.352c0 4.142 3.357 7.5 7.5 7.5z"/><path d="m294.003 314.44v-21.352c0-4.142-3.357-7.5-7.5-7.5s-7.5 3.358-7.5 7.5v21.352c0 4.142 3.357 7.5 7.5 7.5s7.5-3.358 7.5-7.5z"/><path d="m212.404 362.228c0 4.142 3.357 7.5 7.5 7.5h72.191c4.143 0 7.5-3.358 7.5-7.5s-3.357-7.5-7.5-7.5h-72.191c-4.142 0-7.5 3.358-7.5 7.5z"/><path d="m492.481 119.842c-2.3-3.445-6.956-4.373-10.402-2.073-3.444 2.3-4.372 6.957-2.072 10.402 11.117 16.65 16.993 36.074 16.993 56.171 0 55.854-45.44 101.294-101.295 101.294-55.854 0-101.294-45.44-101.294-101.294s45.44-101.294 101.294-101.294c22.711 0 44.176 7.348 62.074 21.249 3.27 2.54 7.982 1.95 10.523-1.323 2.541-3.271 1.949-7.983-1.322-10.524-20.555-15.964-45.201-24.402-71.275-24.402-64.125 0-116.294 52.169-116.294 116.294 0 10.478 1.401 20.633 4.011 30.297-8.796-2.137-17.978-3.276-27.422-3.276-9.449 0-18.636 1.141-27.437 3.278 2.614-9.665 4.026-19.818 4.026-30.299 0-22.686-6.543-44.676-18.923-63.593-2.268-3.467-6.917-4.438-10.382-2.169-3.466 2.268-4.438 6.917-2.169 10.382 10.777 16.47 16.474 35.62 16.474 55.38 0 12.717-2.362 24.89-6.661 36.112-27.027 11.406-48.876 32.744-60.946 59.417-10.544 3.73-21.881 5.765-33.686 5.765-55.856.001-101.296-45.44-101.296-101.294s45.44-101.294 101.295-101.294c23.052 0 44.771 7.546 62.81 21.823 3.246 2.571 7.965 2.022 10.535-1.227 2.57-3.248 2.021-7.965-1.227-10.535-20.715-16.396-45.653-25.062-72.118-25.062-64.125.001-116.295 52.17-116.295 116.295s52.17 116.294 116.295 116.294c9.444 0 18.625-1.138 27.421-3.275-2.61 9.664-4.011 19.819-4.011 30.296 0 64.125 52.17 116.294 116.295 116.294 26.785 0 52.933-9.332 73.626-26.275 3.204-2.624 3.675-7.35 1.051-10.554-2.625-3.206-7.351-3.676-10.555-1.051-18.02 14.755-40.792 22.881-64.122 22.881-55.854 0-101.295-45.44-101.295-101.294s45.441-101.295 101.295-101.295c11.806 0 23.143 2.035 33.687 5.765 12.07 26.673 33.919 48.012 60.947 59.417 4.299 11.223 6.661 23.396 6.661 36.112 0 19.154-5.376 37.805-15.547 53.938-2.209 3.504-1.159 8.135 2.345 10.344 3.505 2.209 8.137 1.16 10.345-2.344 11.683-18.531 17.857-39.949 17.857-61.938 0-10.48-1.412-20.634-4.026-30.299 8.801 2.137 17.987 3.278 27.436 3.278 64.125.001 116.295-52.169 116.295-116.294 0-23.072-6.749-45.376-19.519-64.5z"/><path d="m395.706 245.731c23.197 0 42.069-18.873 42.069-42.07 0-4.142-3.357-7.5-7.5-7.5s-7.5 3.358-7.5 7.5c0 14.927-12.144 27.07-27.069 27.07-14.927 0-27.07-12.144-27.07-27.07 0-4.142-3.357-7.5-7.5-7.5s-7.5 3.358-7.5 7.5c0 23.197 18.873 42.07 42.07 42.07z"/><path d="m365.412 164.264c0 4.142 3.357 7.5 7.5 7.5s7.5-3.358 7.5-7.5c0-13.732-11.172-24.905-24.904-24.905s-24.905 11.172-24.905 24.905c0 4.142 3.357 7.5 7.5 7.5s7.5-3.358 7.5-7.5c0-5.461 4.443-9.905 9.905-9.905 5.461 0 9.904 4.444 9.904 9.905z"/><path d="m445.809 164.264c0 4.142 3.357 7.5 7.5 7.5s7.5-3.358 7.5-7.5c0-13.732-11.173-24.905-24.905-24.905s-24.904 11.172-24.904 24.905c0 4.142 3.357 7.5 7.5 7.5s7.5-3.358 7.5-7.5c0-5.461 4.443-9.905 9.904-9.905s9.905 4.444 9.905 9.905z"/></g></g></svg>